# xmcd
#
# Track frame offsets: 
#        150
#        12398
#        28833
#        42237
#        53988
#        65065
#        81672
#        96779
#        107135
#        121710
#        136526
#        151138
#        164988
#        182355
#        201129
#        218747
#        241981
#        258443
#        273079
#        286293
#
# Disc length: 4073 seconds
#
# Revision: 0
# Processed by: cddbd v1.5.2PL0 Copyright (c) Steve Scherf et al.
# Submitted via: ExactAudioCopyFreeDBPlugin 1.0
#
DISCID=1c0fe714
DTITLE=Michael van den Valentyn and Stefan Ulbricht - Boogie Woogie - li
DTITLE=ve in Wiesbaden
DYEAR=1900
DGENRE=Boogie Woogie
TTITLE0=You never can tell
TTITLE1=Honky Tonk Train Blues
TTITLE2=Pinetops Blues
TTITLE3=Muppets Rag
TTITLE4=Stefan's Tune
TTITLE5=Bass goin' crazy
TTITLE6=Just for you
TTITLE7=It's a raggy waltz
TTITLE8=Just a closer walk with thee
TTITLE9=Lux on fire
TTITLE10=Gee gee bogee
TTITLE11=The sheik of araby
TTITLE12=Bearfootin'
TTITLE13=Boogie woogie with me
TTITLE14=Cow cow boogie
TTITLE15=Black key boogie
TTITLE16=Boogie Woogie Stomp
TTITLE17=Tell Me How Do You Feel
TTITLE18=Vielen Dank für die Blumen
TTITLE19=Four hands shakin'
EXTD=
EXTT0=
EXTT1=
EXTT2=
EXTT3=
EXTT4=
EXTT5=
EXTT6=
EXTT7=
EXTT8=
EXTT9=
EXTT10=
EXTT11=
EXTT12=
EXTT13=
EXTT14=
EXTT15=
EXTT16=
EXTT17=
EXTT18=
EXTT19=
PLAYORDER=
